<svg width="162" height="41" viewBox="0 0 162 41" fill="none" xmlns="http://www.w3.org/2000/svg">
<path fill-rule="evenodd" clip-rule="evenodd" d="M7.15166 0H19.8046C30.7424 0 39.6092 8.96122 39.6092 20.0154C39.6092 31.0697 30.7424 40.0309 19.8046 40.0309H11.9194C5.33651 40.0309 0 34.6376 0 27.9846V7.2278C0 3.236 3.20191 0 7.15166 0Z" fill="#0089FF"/>
<g filter="url(#filter0_d_7_751)">
<path d="M8.67545 26.135C9.91893 30.3088 13.7336 33.2196 18.111 33.2196C22.4885 33.2196 26.3031 30.3089 27.5466 26.135C27.751 25.449 27.3664 24.7254 26.6875 24.5188C26.0087 24.3122 25.2927 24.7009 25.0883 25.387C24.1692 28.4722 21.3478 30.625 18.111 30.625C14.8743 30.625 12.0528 28.4721 11.1337 25.387C10.9293 24.7009 10.2133 24.3122 9.53449 24.5188C8.85566 24.7254 8.47106 25.449 8.67545 26.135Z" fill="black"/>
</g>
<path d="M8.67545 26.135C9.91893 30.3088 13.7336 33.2196 18.111 33.2196C22.4885 33.2196 26.3031 30.3089 27.5466 26.135C27.751 25.449 27.3664 24.7254 26.6875 24.5188C26.0087 24.3122 25.2927 24.7009 25.0883 25.387C24.1692 28.4722 21.3478 30.625 18.111 30.625C14.8743 30.625 12.0528 28.4721 11.1337 25.387C10.9293 24.7009 10.2133 24.3122 9.53449 24.5188C8.85566 24.7254 8.47106 25.449 8.67545 26.135Z" fill="white"/>
<path opacity="0.5" fill-rule="evenodd" clip-rule="evenodd" d="M16.6875 40.0309H19.6215V31.8765H16.6875V40.0309Z" fill="white"/>
<path opacity="0.5" fill-rule="evenodd" clip-rule="evenodd" d="M9.21821 27.69L8.07999 15.6664C7.96924 14.4957 8.82157 13.4521 9.97977 13.3402L11.8621 13.1582L11.9732 14.3323L10.0909 14.5142C9.57322 14.5645 9.19235 15.0308 9.24186 15.5541L10.3799 27.5777L9.21821 27.69Z" fill="white"/>
<path opacity="0.5" fill-rule="evenodd" clip-rule="evenodd" d="M26.8946 27.7035L28.0941 15.6861C28.2109 14.5159 27.3641 13.4679 26.2063 13.35L24.3248 13.1582L24.2076 14.3317L26.0891 14.5235C26.6066 14.5761 26.9852 15.0447 26.933 15.5677L25.7335 27.5851L26.8946 27.7035Z" fill="white"/>
<g filter="url(#filter1_d_7_751)">
<path d="M11.0063 12.0464H12.2899C12.9988 12.0464 13.5735 12.6272 13.5735 13.3437V14.085C13.5735 14.8015 12.9988 15.3823 12.2899 15.3823H11.0063C10.2974 15.3823 9.72266 14.8015 9.72266 14.085V13.3437C9.72266 12.6272 10.2974 12.0464 11.0063 12.0464Z" fill="black"/>
</g>
<path d="M11.0063 12.0464H12.2899C12.9988 12.0464 13.5735 12.6272 13.5735 13.3437V14.085C13.5735 14.8015 12.9988 15.3823 12.2899 15.3823H11.0063C10.2974 15.3823 9.72266 14.8015 9.72266 14.085V13.3437C9.72266 12.6272 10.2974 12.0464 11.0063 12.0464Z" fill="white"/>
<g filter="url(#filter2_d_7_751)">
<path d="M23.8383 12.0464H25.122C25.8309 12.0464 26.4056 12.6272 26.4056 13.3437V14.085C26.4056 14.8015 25.8309 15.3823 25.122 15.3823H23.8383C23.1294 15.3823 22.5547 14.8015 22.5547 14.085V13.3437C22.5547 12.6272 23.1294 12.0464 23.8383 12.0464Z" fill="black"/>
</g>
<path d="M23.8383 12.0464H25.122C25.8309 12.0464 26.4056 12.6272 26.4056 13.3437V14.085C26.4056 14.8015 25.8309 15.3823 25.122 15.3823H23.8383C23.1294 15.3823 22.5547 14.8015 22.5547 14.085V13.3437C22.5547 12.6272 23.1294 12.0464 23.8383 12.0464Z" fill="white"/>
<path fill-rule="evenodd" clip-rule="evenodd" d="M82.6406 14.8237C76.636 14.8237 72.2576 19.077 72.2576 24.9565C72.2576 30.8986 76.5734 35.277 82.6406 35.277C88.6452 35.277 93.0236 30.8986 93.0236 24.9565C93.0236 19.077 88.7078 14.8237 82.6406 14.8237ZM82.7031 29.6477C80.0761 29.6477 78.3873 27.5836 78.3873 24.9565C78.3873 22.4546 80.1386 20.3905 82.7031 20.3905C85.2676 20.3905 87.019 22.4546 87.019 24.9565C86.9564 27.5836 85.2676 29.6477 82.7031 29.6477Z" fill="#191B21"/>
<path fill-rule="evenodd" clip-rule="evenodd" d="M68.6942 4.50342H64.9413C64.1907 4.50342 63.6278 5.1289 63.6278 5.81693V15.3868C62.5019 15.0115 61.3135 14.8239 60 14.8239C53.9953 14.8239 49.6169 19.0772 49.6169 24.9567C49.6169 30.8988 53.9328 35.2772 60 35.2772C61.3135 35.2772 62.5644 35.027 63.7528 34.6517C63.9405 35.1521 64.4409 35.5274 65.0038 35.5274H68.7567C69.5073 35.5274 70.0702 34.9019 70.0702 34.2138V5.81693C70.0077 5.06635 69.3822 4.50342 68.6942 4.50342ZM60 29.6478C57.3729 29.6478 55.6841 27.5837 55.6841 24.9567C55.6841 22.4548 57.4355 20.3907 60 20.3907C62.5644 20.3907 64.3158 22.4548 64.3158 24.9567C64.3158 27.5837 62.5644 29.6478 60 29.6478Z" fill="#191B21"/>
<path fill-rule="evenodd" clip-rule="evenodd" d="M128.363 14.8237C122.359 14.8237 117.98 19.077 117.98 24.9565C117.98 30.8986 122.296 35.277 128.363 35.277C134.368 35.277 138.746 30.8986 138.746 24.9565C138.684 19.077 134.368 14.8237 128.363 14.8237ZM128.363 29.6477C125.736 29.6477 124.047 27.5836 124.047 24.9565C124.047 22.4546 125.799 20.3905 128.363 20.3905C130.928 20.3905 132.679 22.4546 132.679 24.9565C132.679 27.5836 130.928 29.6477 128.363 29.6477Z" fill="#191B21"/>
<path fill-rule="evenodd" clip-rule="evenodd" d="M114.104 26.8956H110.727C110.164 26.8956 109.726 27.2083 109.476 27.7713C108.913 29.0848 107.599 29.8979 105.911 29.8979C103.096 29.8979 101.407 27.8338 101.407 25.1442C101.407 22.4547 103.096 20.3906 105.911 20.3906C107.599 20.3906 108.913 21.2037 109.476 22.5172C109.726 23.0176 110.164 23.3929 110.727 23.3929H114.417C115.23 23.3929 115.856 22.5798 115.668 21.7666C114.605 17.5759 110.727 14.7612 105.911 14.7612C99.7183 14.7612 95.2148 19.0771 95.2148 25.0817C95.2148 31.1489 99.7183 35.4647 105.911 35.4647C110.602 35.4647 114.355 32.8377 115.543 28.8346C115.856 27.8964 115.105 26.8956 114.104 26.8956Z" fill="#191B21"/>
<path fill-rule="evenodd" clip-rule="evenodd" d="M152.821 14.8237C151.133 14.8237 149.694 15.3241 148.318 16.1998C147.818 16.5125 147.192 16.1372 147.192 15.5743C147.192 15.1365 146.879 14.8237 146.441 14.8237H142.876C141.75 14.8237 140.812 15.762 140.812 16.8878V34.1511C140.812 34.9017 141.375 35.4647 142.126 35.4647H146.379C147.13 35.4647 147.692 34.8392 147.692 34.1511V23.9558C147.692 22.7674 149.381 21.016 151.445 21.016C153.635 21.016 155.136 22.3921 155.136 25.3318V34.1511C155.136 34.9017 155.761 35.5272 156.449 35.5272H160.202C160.953 35.5272 161.516 34.9017 161.516 34.2137V23.3303C161.703 19.2021 158.013 14.8237 152.821 14.8237Z" fill="#191B21"/>
<defs>
<filter id="filter0_d_7_751" x="6.29065" y="20.9685" width="23.6407" height="13.4163" filterUnits="userSpaceOnUse" color-interpolation-filters="sRGB">
<feFlood flood-opacity="0" result="BackgroundImageFix"/>
<feColorMatrix in="SourceAlpha" type="matrix" values="0 0 0 0 0 0 0 0 0 0 0 0 0 0 0 0 0 0 127 0" result="hardAlpha"/>
<feOffset dy="-1.16498"/>
<feGaussianBlur stdDeviation="1.16498"/>
<feColorMatrix type="matrix" values="0 0 0 0 0 0 0 0 0 0 0 0 0 0 0 0 0 0 0.1 0"/>
<feBlend mode="normal" in2="BackgroundImageFix" result="effect1_dropShadow_7_751"/>
<feBlend mode="normal" in="SourceGraphic" in2="effect1_dropShadow_7_751" result="shape"/>
</filter>
<filter id="filter1_d_7_751" x="6.81022" y="9.71643" width="8.51086" height="7.99584" filterUnits="userSpaceOnUse" color-interpolation-filters="sRGB">
<feFlood flood-opacity="0" result="BackgroundImageFix"/>
<feColorMatrix in="SourceAlpha" type="matrix" values="0 0 0 0 0 0 0 0 0 0 0 0 0 0 0 0 0 0 127 0" result="hardAlpha"/>
<feOffset dx="-0.582488"/>
<feGaussianBlur stdDeviation="1.16498"/>
<feColorMatrix type="matrix" values="0 0 0 0 0 0 0 0 0 0 0 0 0 0 0 0 0 0 0.1 0"/>
<feBlend mode="normal" in2="BackgroundImageFix" result="effect1_dropShadow_7_751"/>
<feBlend mode="normal" in="SourceGraphic" in2="effect1_dropShadow_7_751" result="shape"/>
</filter>
<filter id="filter2_d_7_751" x="20.8072" y="9.71643" width="8.51086" height="7.99584" filterUnits="userSpaceOnUse" color-interpolation-filters="sRGB">
<feFlood flood-opacity="0" result="BackgroundImageFix"/>
<feColorMatrix in="SourceAlpha" type="matrix" values="0 0 0 0 0 0 0 0 0 0 0 0 0 0 0 0 0 0 127 0" result="hardAlpha"/>
<feOffset dx="0.582488"/>
<feGaussianBlur stdDeviation="1.16498"/>
<feColorMatrix type="matrix" values="0 0 0 0 0 0 0 0 0 0 0 0 0 0 0 0 0 0 0.1 0"/>
<feBlend mode="normal" in2="BackgroundImageFix" result="effect1_dropShadow_7_751"/>
<feBlend mode="normal" in="SourceGraphic" in2="effect1_dropShadow_7_751" result="shape"/>
</filter>
</defs>
</svg>
