<svg width="106" height="106" viewBox="0 0 106 106" fill="none" xmlns="http://www.w3.org/2000/svg">
<path d="M81.4006 5H24.6006C23.6673 5 22.7433 5.18398 21.8812 5.54141C21.0191 5.89884 20.236 6.42272 19.5766 7.08308C18.9171 7.74343 18.3944 8.52731 18.0382 9.38988C17.6819 10.2524 17.4993 11.1768 17.5006 12.11V93.81C17.4887 94.7499 17.6635 95.6829 18.015 96.5547C18.3664 97.4265 18.8875 98.2199 19.548 98.8887C20.2085 99.5576 20.9952 100.089 21.8626 100.451C22.7299 100.813 23.6606 101 24.6006 101H81.4006C82.3338 101 83.2579 100.816 84.1199 100.459C84.982 100.101 85.7651 99.5773 86.4246 98.9169C87.084 98.2566 87.6068 97.4727 87.963 96.6101C88.3192 95.7476 88.5019 94.8232 88.5006 93.89V12.15C88.5072 11.2134 88.3284 10.2848 87.9745 9.41759C87.6207 8.5504 87.0987 7.76179 86.4388 7.09719C85.7788 6.43259 84.9939 5.90513 84.1292 5.5452C83.2645 5.18527 82.3372 4.99998 81.4006 5Z" fill="#0089FF"/>
<path d="M79.0498 14.5303H26.9998C25.7444 14.5303 24.5402 15.0283 23.6516 15.9151C22.763 16.8018 22.2624 18.0049 22.2598 19.2603V84.3403C22.2598 85.5974 22.7592 86.803 23.6481 87.692C24.537 88.5809 25.7426 89.0803 26.9998 89.0803H79.0498C80.3069 89.0803 81.5125 88.5809 82.4015 87.692C83.2904 86.803 83.7898 85.5974 83.7898 84.3403V19.2603C83.7871 18.0049 83.2866 16.8018 82.3979 15.9151C81.5093 15.0283 80.3052 14.5303 79.0498 14.5303Z" fill="white"/>
<path d="M30.5195 48.3002C30.5222 47.8193 30.7151 47.3589 31.0561 47.0198C31.3972 46.6806 31.8586 46.4902 32.3395 46.4902H73.7095C74.1896 46.4902 74.65 46.6809 74.9894 47.0204C75.3288 47.3598 75.5195 47.8202 75.5195 48.3002V89.1202H30.5195V48.3002Z" fill="#F7F9FB"/>
<path d="M61.3098 54.5898H51.8398C51.5746 54.5898 51.3203 54.4845 51.1327 54.297C50.9452 54.1094 50.8398 53.8551 50.8398 53.5898C50.8398 53.3246 50.9452 53.0703 51.1327 52.8827C51.3203 52.6952 51.5746 52.5898 51.8398 52.5898H61.3098C61.5751 52.5898 61.8294 52.6952 62.0169 52.8827C62.2045 53.0703 62.3098 53.3246 62.3098 53.5898C62.3098 53.8551 62.2045 54.1094 62.0169 54.297C61.8294 54.4845 61.5751 54.5898 61.3098 54.5898Z" fill="#D0D8DE"/>
<path d="M61.1698 59.3301H51.8398C51.5746 59.3301 51.3203 59.2247 51.1327 59.0372C50.9452 58.8496 50.8398 58.5953 50.8398 58.3301C50.8398 58.0649 50.9452 57.8105 51.1327 57.623C51.3203 57.4354 51.5746 57.3301 51.8398 57.3301H61.1698C61.4351 57.3301 61.6894 57.4354 61.8769 57.623C62.0645 57.8105 62.1698 58.0649 62.1698 58.3301C62.1698 58.5953 62.0645 58.8496 61.8769 59.0372C61.6894 59.2247 61.4351 59.3301 61.1698 59.3301Z" fill="#D0D8DE"/>
<path d="M70.7892 71.1699H36.4492C36.184 71.1699 35.9296 71.0646 35.7421 70.877C35.5546 70.6895 35.4492 70.4351 35.4492 70.1699C35.4492 69.9047 35.5546 69.6504 35.7421 69.4628C35.9296 69.2753 36.184 69.1699 36.4492 69.1699H70.7892C71.0544 69.1699 71.3088 69.2753 71.4963 69.4628C71.6839 69.6504 71.7892 69.9047 71.7892 70.1699C71.7892 70.4351 71.6839 70.6895 71.4963 70.877C71.3088 71.0646 71.0544 71.1699 70.7892 71.1699Z" fill="#D0D8DE"/>
<path d="M56.5792 78.2695H36.4492C36.184 78.2695 35.9296 78.1642 35.7421 77.9766C35.5546 77.7891 35.4492 77.5347 35.4492 77.2695C35.4492 77.0043 35.5546 76.75 35.7421 76.5624C35.9296 76.3749 36.184 76.2695 36.4492 76.2695H56.5792C56.8444 76.2695 57.0988 76.3749 57.2863 76.5624C57.4739 76.75 57.5792 77.0043 57.5792 77.2695C57.5792 77.5347 57.4739 77.7891 57.2863 77.9766C57.0988 78.1642 56.8444 78.2695 56.5792 78.2695Z" fill="#D0D8DE"/>
<path d="M53 98C53.5933 98 54.1734 97.824 54.6667 97.4944C55.1601 97.1648 55.5446 96.6962 55.7716 96.148C55.9987 95.5999 56.0581 94.9967 55.9424 94.4147C55.8266 93.8328 55.5409 93.2982 55.1213 92.8787C54.7018 92.4591 54.1672 92.1734 53.5853 92.0576C53.0033 91.9419 52.4001 92.0013 51.852 92.2284C51.3038 92.4554 50.8352 92.8399 50.5056 93.3333C50.1759 93.8266 50 94.4067 50 95C50 95.7956 50.3161 96.5587 50.8787 97.1213C51.4413 97.6839 52.2044 98 53 98Z" fill="#00294D"/>
<path d="M52.9998 41.7497C55.1082 41.7497 57.1692 41.1245 58.9222 39.9532C60.6753 38.7818 62.0416 37.117 62.8484 35.1691C63.6552 33.2212 63.8663 31.0779 63.455 29.01C63.0437 26.9422 62.0284 25.0428 60.5376 23.5519C59.0468 22.0611 57.1473 21.0458 55.0795 20.6345C53.0117 20.2232 50.8683 20.4343 48.9204 21.2411C46.9726 22.048 45.3077 23.4143 44.1364 25.1673C42.965 26.9203 42.3398 28.9813 42.3398 31.0897C42.3398 33.9169 43.4629 36.6283 45.4621 38.6275C47.4612 40.6266 50.1726 41.7497 52.9998 41.7497Z" fill="#FFB74D"/>
<path d="M55.3906 36.7699L46.3906 31.0899L55.3906 25.4199L55.9706 26.3599L48.4306 31.0899L56.0006 35.8299L55.3906 36.7699Z" fill="white"/>
<path d="M47.3906 33.0801C47.7862 33.0801 48.1729 32.9628 48.5018 32.743C48.8307 32.5233 49.087 32.2109 49.2384 31.8454C49.3898 31.48 49.4294 31.0779 49.3522 30.6899C49.275 30.3019 49.0845 29.9456 48.8048 29.6659C48.5251 29.3862 48.1688 29.1957 47.7808 29.1185C47.3928 29.0413 46.9907 29.0809 46.6253 29.2323C46.2598 29.3837 45.9475 29.64 45.7277 29.9689C45.5079 30.2978 45.3906 30.6845 45.3906 31.0801C45.3906 31.6105 45.6013 32.1192 45.9764 32.4943C46.3515 32.8694 46.8602 33.0801 47.3906 33.0801Z" fill="white"/>
<path d="M55.6797 27.8896C56.0753 27.8896 56.4619 27.7724 56.7908 27.5526C57.1197 27.3328 57.3761 27.0205 57.5274 26.655C57.6788 26.2896 57.7184 25.8874 57.6413 25.4995C57.5641 25.1115 57.3736 24.7551 57.0939 24.4754C56.8142 24.1957 56.4578 24.0052 56.0699 23.9281C55.6819 23.8509 55.2798 23.8905 54.9143 24.0419C54.5489 24.1933 54.2365 24.4496 54.0167 24.7785C53.797 25.1074 53.6797 25.4941 53.6797 25.8896C53.6797 26.4201 53.8904 26.9288 54.2655 27.3039C54.6405 27.6789 55.1493 27.8896 55.6797 27.8896Z" fill="white"/>
<path d="M55.6797 38.2803C56.0753 38.2803 56.4619 38.163 56.7908 37.9432C57.1197 37.7235 57.3761 37.4111 57.5274 37.0456C57.6788 36.6802 57.7184 36.2781 57.6413 35.8901C57.5641 35.5021 57.3736 35.1458 57.0939 34.8661C56.8142 34.5864 56.4578 34.3959 56.0699 34.3187C55.6819 34.2415 55.2798 34.2811 54.9143 34.4325C54.5489 34.5839 54.2365 34.8402 54.0167 35.1691C53.797 35.498 53.6797 35.8847 53.6797 36.2803C53.6797 36.8107 53.8904 37.3194 54.2655 37.6945C54.6405 38.0696 55.1493 38.2803 55.6797 38.2803Z" fill="white"/>
<path d="M41.1798 61.88C44.4493 61.88 47.0998 59.2296 47.0998 55.96C47.0998 52.6905 44.4493 50.04 41.1798 50.04C37.9102 50.04 35.2598 52.6905 35.2598 55.96C35.2598 59.2296 37.9102 61.88 41.1798 61.88Z" fill="#D0D8DE"/>
</svg>
